# xmcd CD database file
#
# Track frame offsets:
#	150
#	19836
#	41814
#	66657
#	91441
#	113745
#	136388
#	163008
#	181107
#	204297
#	217953
#	241446
#	258595
#	278353
#	293713
#	313206
#
# Disc length: 4475 seconds
#
# Revision: 0
# Processed by: cddbd v1.5.2PL0 Copyright (c) Steve Scherf et al.
# Submitted via: CDex 1.79
#
DISCID=ec117910
DTITLE=Lars Erstrand - Antti Sarpila Quartet - A sailboat in the moonlight
DYEAR=2003
DGENRE=Jazz
TTITLE0=A sailboat in the moonlight
TTITLE1=I want to be happy
TTITLE2=It might as well be spring
TTITLE3='deed I do
TTITLE4=Smiles
TTITLE5=The swan
TTITLE6=Nobody's sweetheart
TTITLE7=Blue interlude
TTITLE8=I'll see you in my dreams
TTITLE9=Our love is here to stay
TTITLE10=Margie
TTITLE11=Do you know what it means to miss New Orleans
TTITLE12=Brother can you spare a dime
TTITLE13=Between the devil and the deep blue sea
TTITLE14=I'll get by
TTITLE15=China boy
EXTD=YEAR: 2003
EXTT0=
EXTT1=
EXTT2=
EXTT3=
EXTT4=
EXTT5=
EXTT6=
EXTT7=
EXTT8=
EXTT9=
EXTT10=
EXTT11=
EXTT12=
EXTT13=
EXTT14=
EXTT15=
PLAYORDER=
